<svg width="512" height="512" viewBox="0 0 512 512" fill="none" xmlns="http://www.w3.org/2000/svg" role="img" aria-labelledby="title desc">
  <title id="title">MBTI SAJU Concept 3</title>
  <desc id="desc">Minimal editorial mark with central five-elements wheel and geometric MBTI anchors.</desc>

  <defs>
    <linearGradient id="bg" x1="28" y1="28" x2="484" y2="484" gradientUnits="userSpaceOnUse">
      <stop stop-color="#FFF8EE"/>
      <stop offset="1" stop-color="#F3F4F6"/>
    </linearGradient>
    <filter id="soft" x="54" y="54" width="404" height="404" filterUnits="userSpaceOnUse" color-interpolation-filters="sRGB">
      <feDropShadow dx="0" dy="8" stdDeviation="6" flood-color="#0F172A" flood-opacity="0.15"/>
    </filter>
  </defs>

  <rect width="512" height="512" rx="96" fill="url(#bg)"/>

  <g filter="url(#soft)">
    <circle cx="256" cy="256" r="158" fill="#FFFFFF"/>
    <path d="M256 256L256 98A158 158 0 0 1 406.288 207.772Z" fill="#D9B249"/>
    <path d="M256 256L406.288 207.772A158 158 0 0 1 348.878 384.228Z" fill="#6CCB69"/>
    <path d="M256 256L348.878 384.228A158 158 0 0 1 163.122 384.228Z" fill="#4FA6EC"/>
    <path d="M256 256L163.122 384.228A158 158 0 0 1 105.712 207.772Z" fill="#ED6A5D"/>
    <path d="M256 256L105.712 207.772A158 158 0 0 1 256 98Z" fill="#606B7A"/>
  </g>

  <g stroke="#94A3B8" stroke-width="2" opacity="0.9">
    <path d="M98 98L160 160"/>
    <path d="M414 98L352 160"/>
    <path d="M98 414L160 352"/>
    <path d="M414 414L352 352"/>
  </g>

  <g fill="#0F172A" font-family="Poppins, Montserrat, Segoe UI, sans-serif" font-size="106" font-weight="800">
    <text x="42" y="114">M</text>
    <text x="470" y="114" text-anchor="end">B</text>
    <text x="42" y="474">T</text>
    <text x="470" y="474" text-anchor="end">I</text>
  </g>
</svg>
