<svg xmlns="http://www.w3.org/2000/svg" viewBox="0 0 1024 1024">
  <defs>
    <linearGradient id="bg" x1="146" y1="116" x2="878" y2="928" gradientUnits="userSpaceOnUse">
      <stop offset="0" stop-color="#07111F"/>
      <stop offset="0.54" stop-color="#0C2340"/>
      <stop offset="1" stop-color="#135A8F"/>
    </linearGradient>
    <radialGradient id="bgGlow" cx="0" cy="0" r="1" gradientUnits="userSpaceOnUse" gradientTransform="translate(286 192) rotate(30) scale(598 480)">
      <stop offset="0" stop-color="#37B8FF" stop-opacity="0.42"/>
      <stop offset="1" stop-color="#37B8FF" stop-opacity="0"/>
    </radialGradient>
    <linearGradient id="barFill" x1="264" y1="324" x2="650" y2="790" gradientUnits="userSpaceOnUse">
      <stop offset="0" stop-color="#A3EAFF"/>
      <stop offset="1" stop-color="#2993F3"/>
    </linearGradient>
    <linearGradient id="arrowFill" x1="236" y1="690" x2="790" y2="282" gradientUnits="userSpaceOnUse">
      <stop offset="0" stop-color="#56E3B2"/>
      <stop offset="1" stop-color="#C8F35B"/>
    </linearGradient>
  </defs>

  <circle cx="512" cy="512" r="456" fill="url(#bg)"/>
  <circle cx="512" cy="512" r="456" fill="url(#bgGlow)"/>
  <circle cx="512" cy="512" r="412" fill="none" stroke="#FFFFFF" stroke-opacity="0.13" stroke-width="16"/>

  <circle cx="508" cy="556" r="304" fill="#06111D" fill-opacity="0.18"/>

  <path d="M188 676H838" stroke="#8FD9FF" stroke-opacity="0.10" stroke-width="18" stroke-linecap="round"/>
  <path d="M248 808V220" stroke="#8FD9FF" stroke-opacity="0.09" stroke-width="18" stroke-linecap="round"/>
  <path d="M192 738C328 626 434 578 580 522C704 478 794 386 854 248" fill="none" stroke="#7CC8FF" stroke-opacity="0.12" stroke-width="28" stroke-linecap="round"/>

  <rect x="248" y="528" width="96" height="236" rx="48" fill="url(#barFill)"/>
  <rect x="388" y="432" width="96" height="332" rx="48" fill="url(#barFill)"/>
  <rect x="528" y="312" width="96" height="452" rx="48" fill="url(#barFill)"/>

  <rect x="274" y="566" width="18" height="146" rx="9" fill="#FFFFFF" fill-opacity="0.32"/>
  <rect x="414" y="470" width="18" height="214" rx="9" fill="#FFFFFF" fill-opacity="0.32"/>
  <rect x="554" y="350" width="18" height="286" rx="9" fill="#FFFFFF" fill-opacity="0.32"/>

  <path d="M220 656C312 656 374 616 450 556C532 492 622 438 724 314" fill="none" stroke="url(#arrowFill)" stroke-width="86" stroke-linecap="round" stroke-linejoin="round"/>
  <path d="M664 314L792 284L754 412" fill="none" stroke="url(#arrowFill)" stroke-width="86" stroke-linecap="round" stroke-linejoin="round"/>

  <circle cx="452" cy="556" r="28" fill="#F6FFF8"/>
  <circle cx="602" cy="448" r="28" fill="#F6FFF8"/>
</svg>
